<?xml version="1.0" encoding="utf-8"?>
<!-- Generator: Adobe Illustrator 27.8.1, SVG Export Plug-In . SVG Version: 6.00 Build 0)  -->
<svg version="1.1" id="Layer_1" xmlns="http://www.w3.org/2000/svg" xmlns:xlink="http://www.w3.org/1999/xlink" x="0px" y="0px"
	 viewBox="0 0 960 720" style="enable-background:new 0 0 960 720;background-color:white;" xml:space="preserve">
<style type="text/css">
	.st0{fill:#F2F2F2;}
	.st1{fill:#FFFFFF;}
	.st2{fill:#666666;}
	.st3{font-family:sans-serif;}
	.st4{font-size:14px;}
	.st5{font-family:sans-serif;}
	.st6{font-size:28px;}
	.st7{fill:#808080;}
	.st8{font-size:12px;}
	.st9{fill:#29ABE2;}
	.st10{font-size:21px;}
	.st11{fill:none;stroke:#FFFFFF;stroke-width:3;stroke-miterlimit:10;stroke-dasharray:12.2396,12.2396;}
	.st12{fill:none;stroke:#29ABE2;stroke-miterlimit:10;}
	.st13{fill:none;stroke:#CCCCCC;stroke-miterlimit:10;}
	.st14{fill:#CCCCCC;}
	.st15{fill:none;stroke:#FFFFFF;stroke-miterlimit:10;}
</style>
<rect x="10" y="10" class="st0" width="940" height="700"/>
<path class="st1" d="M508,171.97c0-8.53-5.79-15.7-13.65-17.81c-4.29-3.83-9.95-6.16-16.16-6.16c-8.5,0-15.98,4.37-20.32,10.99
	c-9.79,3.13-16.87,12.3-16.87,23.12c0,11.12,7.47,20.48,17.66,23.36c3.14,5.68,9.19,9.53,16.14,9.53c3.79,0,7.32-1.15,10.25-3.11
	c12.79-0.7,22.94-11.28,22.94-24.24c0-2.95-0.53-5.78-1.49-8.4C507.47,177.02,508,174.56,508,171.97z"/>
<path class="st1" d="M508,484.97c0-8.53-5.79-15.7-13.65-17.81c-4.29-3.83-9.95-6.16-16.16-6.16c-8.5,0-15.98,4.37-20.32,10.99
	c-9.79,3.13-16.87,12.3-16.87,23.12c0,11.12,7.47,20.48,17.66,23.36c3.14,5.68,9.19,9.53,16.14,9.53c3.79,0,7.32-1.15,10.25-3.11
	c12.79-0.7,22.94-11.28,22.94-24.24c0-2.95-0.53-5.78-1.49-8.4C507.47,490.02,508,487.56,508,484.97z"/>
<path class="st1" d="M570,308.34c0-24.31-16.51-44.76-38.92-50.77C518.84,246.65,502.71,240,485.01,240
	c-24.24,0-45.55,12.47-57.92,31.33c-27.9,8.93-48.1,35.06-48.1,65.92c0,31.69,21.3,58.38,50.36,66.59
	c8.96,16.19,26.21,27.15,46.02,27.15c10.82,0,20.87-3.27,29.22-8.87c36.45-1.98,65.4-32.16,65.4-69.11c0-8.42-1.51-16.48-4.26-23.94
	C568.48,322.72,570,315.71,570,308.34z"/>
<circle class="st1" cx="825.5" cy="181.5" r="39.5"/>
<circle class="st1" cx="825.5" cy="90.5" r="25.5"/>
<circle class="st1" cx="825.5" cy="592.5" r="25.5"/>
<circle class="st1" cx="825.5" cy="499.5" r="39.5"/>
<circle class="st1" cx="825.06" cy="338" r="93.5"/>
<text transform="matrix(1 0 0 1 37.3498 49.6606)" class="st2 st3 st4">Approach to Insight</text>
<text transform="matrix(1 0 0 1 88.5628 332.6606)" class="st2 st5 st6">Insight</text>
<text transform="matrix(1 0 0 1 407.4708 332.6606)" class="st2 st5 st6">Question(s)</text>
<text transform="matrix(1 0 0 1 210.2478 676.6606)" class="st7 st5 st8">Artistic Thinking</text>
<text transform="matrix(1 0 0 1 656.8969 676.6606)" class="st7 st5 st8">Design Thinking</text>
<text transform="matrix(1 0 0 1 776.8182 359.6606)" class="st2 st5 st4">To Be Achieved</text>
<text transform="matrix(1 0 0 1 429.2672 359.6606)" class="st2 st5 st4">To Be Answered</text>
<text transform="matrix(1 0 0 1 607.1677 310.6606)" class="st7 st5 st4">Design Method</text>
<text transform="matrix(1 0 0 1 618.2077 359.6606)" class="st7 st5 st4">New Issues</text>
<text transform="matrix(1 0 0 1 248.4573 359.6606)" class="st9 st5 st4">New Possibilities</text>
<text transform="matrix(1 0 0 1 274.1827 312.6606)" class="st9 st5 st10">Probe</text>
<text transform="matrix(1 0 0 1 76.4699 359.6606)" class="st2 st5 st4">To Be Discovered</text>
<text transform="matrix(1 0 0 1 779.6548 332.6606)" class="st2 st5 st6">Goal(s)</text>
<g>
	<circle class="st11" cx="130.85" cy="337.5" r="93.5"/>
</g>
<g>
	<g>
		<line class="st12" x1="360.6" y1="324.5" x2="244.2" y2="324.5"/>
		<g>
			<path class="st9" d="M251.04,319.7c0.15,0.23,0.08,0.54-0.15,0.69l-6.45,4.11l6.45,4.11c0.23,0.15,0.3,0.46,0.15,0.69
				s-0.46,0.3-0.69,0.15l-7.11-4.53c-0.14-0.09-0.23-0.25-0.23-0.42s0.09-0.33,0.23-0.42l7.11-4.53c0.08-0.05,0.18-0.08,0.27-0.08
				C250.78,319.47,250.94,319.55,251.04,319.7z"/>
		</g>
	</g>
</g>
<g>
	<g>
		<line class="st13" x1="361.4" y1="337.5" x2="245" y2="337.5"/>
		<g>
			<path class="st14" d="M354.57,332.7c-0.15,0.23-0.08,0.54,0.15,0.69l6.45,4.11l-6.45,4.11c-0.23,0.15-0.3,0.46-0.15,0.69
				s0.46,0.3,0.69,0.15l7.11-4.53c0.14-0.09,0.23-0.25,0.23-0.42s-0.09-0.33-0.23-0.42l-7.11-4.53c-0.08-0.05-0.18-0.08-0.27-0.08
				C354.82,332.47,354.66,332.55,354.57,332.7z"/>
		</g>
	</g>
</g>
<g>
	<g>
		<line class="st13" x1="365.14" y1="225.3" x2="245" y2="280.14"/>
		<g>
			<path class="st14" d="M356.93,223.77c-0.04,0.27,0.15,0.53,0.43,0.56l7.58,1.06l-4.16,6.42c-0.15,0.23-0.08,0.54,0.15,0.69
				c0.23,0.15,0.54,0.08,0.69-0.15l4.59-7.08c0.09-0.14,0.11-0.32,0.04-0.48c-0.07-0.16-0.22-0.26-0.39-0.29l-8.35-1.17
				c-0.1-0.01-0.19,0-0.28,0.04C357.06,223.45,356.95,223.59,356.93,223.77z"/>
		</g>
	</g>
</g>
<g>
	<g>
		<line class="st13" x1="365.14" y1="445.64" x2="245" y2="390.8"/>
		<g>
			<path class="st14" d="M360.91,438.43c-0.23,0.15-0.3,0.46-0.15,0.69l4.16,6.42l-7.58,1.06c-0.27,0.04-0.46,0.29-0.43,0.56
				c0.04,0.27,0.29,0.46,0.56,0.43l8.35-1.17c0.17-0.02,0.31-0.13,0.39-0.29c0.07-0.16,0.06-0.34-0.04-0.48l-4.59-7.08
				c-0.05-0.08-0.13-0.14-0.21-0.18C361.24,438.33,361.06,438.34,360.91,438.43z"/>
		</g>
	</g>
</g>
<g>
	<g>
		<line class="st13" x1="714.14" y1="225.3" x2="594" y2="280.14"/>
		<g>
			<path class="st14" d="M705.93,223.77c-0.04,0.27,0.15,0.53,0.43,0.56l7.58,1.06l-4.16,6.42c-0.15,0.23-0.08,0.54,0.15,0.69
				s0.54,0.08,0.69-0.15l4.59-7.08c0.09-0.14,0.11-0.32,0.04-0.48c-0.07-0.16-0.22-0.26-0.39-0.29l-8.35-1.17
				c-0.1-0.01-0.19,0-0.28,0.04C706.06,223.45,705.95,223.59,705.93,223.77z"/>
		</g>
	</g>
</g>
<g>
	<g>
		<line class="st13" x1="714.14" y1="445.64" x2="594" y2="390.8"/>
		<g>
			<path class="st14" d="M709.91,438.43c-0.23,0.15-0.3,0.46-0.15,0.69l4.16,6.42l-7.58,1.06c-0.27,0.04-0.46,0.29-0.43,0.56
				c0.04,0.27,0.29,0.46,0.56,0.43l8.35-1.17c0.17-0.02,0.31-0.13,0.39-0.29c0.07-0.16,0.06-0.34-0.04-0.48l-4.59-7.08
				c-0.05-0.08-0.13-0.14-0.21-0.18C710.24,438.33,710.06,438.34,709.91,438.43z"/>
		</g>
	</g>
</g>
<g>
	<g>
		<line class="st13" x1="711" y1="324.5" x2="594.6" y2="324.5"/>
		<g>
			<path class="st14" d="M601.43,319.7c0.15,0.23,0.08,0.54-0.15,0.69l-6.45,4.11l6.45,4.11c0.23,0.15,0.3,0.46,0.15,0.69
				s-0.46,0.3-0.69,0.15l-7.11-4.53c-0.14-0.09-0.23-0.25-0.23-0.42s0.09-0.33,0.23-0.42l7.11-4.53c0.08-0.05,0.18-0.08,0.27-0.08
				C601.18,319.47,601.34,319.55,601.43,319.7z"/>
		</g>
	</g>
</g>
<g>
	<g>
		<line class="st13" x1="711.8" y1="337.5" x2="595.4" y2="337.5"/>
		<g>
			<path class="st14" d="M704.96,332.7c-0.15,0.23-0.08,0.54,0.15,0.69l6.45,4.11l-6.45,4.11c-0.23,0.15-0.3,0.46-0.15,0.69
				s0.46,0.3,0.69,0.15l7.11-4.53c0.14-0.09,0.23-0.25,0.23-0.42s-0.09-0.33-0.23-0.42l-7.11-4.53c-0.08-0.05-0.18-0.08-0.27-0.08
				C705.22,332.47,705.06,332.55,704.96,332.7z"/>
		</g>
	</g>
</g>
<polyline class="st15" points="307.73,673.32 473.84,673.32 473.84,664 "/>
<polyline class="st15" points="38,664 38,673.32 200.8,673.32 "/>
<polyline class="st15" points="751.93,673.32 919,673.32 919,664 "/>
<polyline class="st15" points="483.16,664 483.16,673.32 649.5,673.32 "/>
</svg>
