<?xml version="1.0" encoding="UTF-8"?>
<svg id="Layer_1" data-name="Layer 1" xmlns="http://www.w3.org/2000/svg" viewBox="0 0 287.63 289.64">
  <defs>
    <style>
      .cls-1 {
        fill: #000;
        stroke-width: 0px;
      }
    </style>
  </defs>
  <path class="cls-1" d="M175.16,242.58c10.64,0,21.28-4.05,29.38-12.15l70.93-70.93c16.2-16.2,16.2-42.56,0-58.77L186.9,12.15c-16.2-16.2-42.56-16.2-58.77,0L57.2,83.08c-7.85,7.85-12.17,18.28-12.17,29.38,0,2.62.25,5.21.72,7.73l-33.6,33.6c-16.2,16.2-16.2,42.56,0,58.77l64.91,64.91c7.72,7.71,17.73,11.75,27.86,12.12.36.04.72.06,1.08.06h120.67c5.8,0,10.5-4.7,10.5-10.5s-4.7-10.5-10.5-10.5h-82.02l26.29-26.29c1.4.14,2.81.22,4.22.22ZM72.05,97.93L142.98,27c3.88-3.88,9.04-6.02,14.53-6.02s10.65,2.14,14.53,6.02l88.58,88.58c3.88,3.88,6.02,9.04,6.02,14.53s-2.14,10.65-6.02,14.53l-70.93,70.93c-8.01,8.01-21.05,8.01-29.07,0l-88.58-88.58c-3.88-3.88-6.02-9.04-6.02-14.53s2.14-10.65,6.02-14.53ZM120.98,262.62c-3.88,3.88-9.04,6.02-14.53,6.02s-10.65-2.14-14.53-6.02L27,197.72c-8.01-8.01-8.01-21.05,0-29.07l28.55-28.55c.53.6,1.08,1.18,1.65,1.75l88.58,88.58c1.25,1.25,2.57,2.4,3.94,3.46l-28.74,28.74Z"/>
</svg>