<?xml version="1.0" encoding="UTF-8"?>
<svg id="Layer_1" data-name="Layer 1" xmlns="http://www.w3.org/2000/svg" viewBox="0 0 200.24 200.24">
  <defs>
    <style>
      .cls-1 {
        fill: #000;
        stroke-width: 0px;
      }
    </style>
  </defs>
  <path class="cls-1" d="M114.97,100.12L197.17,17.92c4.1-4.1,4.1-10.75,0-14.85-4.1-4.1-10.75-4.1-14.85,0l-82.2,82.2L17.92,3.07C13.82-1.02,7.18-1.02,3.08,3.07-1.03,7.18-1.03,13.82,3.08,17.92l82.2,82.2L3.08,182.32c-4.1,4.1-4.1,10.75,0,14.85,2.05,2.05,4.74,3.08,7.42,3.08s5.37-1.03,7.42-3.08l82.2-82.2,82.2,82.2c2.05,2.05,4.74,3.08,7.42,3.08s5.37-1.03,7.42-3.08c4.1-4.1,4.1-10.75,0-14.85l-82.2-82.2Z"/>
</svg>