<?xml version="1.0" encoding="UTF-8"?>
<svg id="Layer_1" data-name="Layer 1" xmlns="http://www.w3.org/2000/svg" viewBox="0 0 258.06 300.58">
  <defs>
    <style>
      .cls-1 {
        fill: #000;
        fill-rule: evenodd;
        stroke-width: 0px;
      }
    </style>
  </defs>
  <path class="cls-1" d="M215.1,245.62c-5.8,0-10.5,4.7-10.5,10.5,0,.88-1.79,4.35-9.75,8.62-17.1,9.16-48.54,14.85-82.05,14.85-26.23,0-50.75-3.34-69.03-9.41-18.91-6.28-22.77-12.68-22.77-14.05s3.86-7.77,22.77-14.05c5.5-1.83,8.48-7.77,6.66-13.27-1.83-5.5-7.77-8.49-13.27-6.66C6.45,232.34,0,246.25,0,256.12s6.45,23.78,37.15,33.98c20.36,6.76,47.23,10.48,75.65,10.48,37.31,0,71.69-6.48,91.96-17.33,17.22-9.22,20.84-19.84,20.84-27.13,0-5.8-4.7-10.5-10.5-10.5Z"/>
  <path class="cls-1" d="M255.4,30.17l-27.51-27.51c-3.55-3.55-9.3-3.55-12.85,0L62.45,155.25l-6.42,6.42-3.74,13.97s0,0,0,0l-7.28,27.18c-1.66,6.21,4.02,11.89,10.23,10.23l17.05-4.57,24.11-6.46L247.57,50.85l7.83-7.83c3.55-3.55,3.55-9.3,0-12.85Z"/>
</svg>